<svg width="1000" height="1000" viewBox="0 0 1000 1000" fill="none" xmlns="http://www.w3.org/2000/svg">
<g clip-path="url(#clip0_401_2)">
<rect width="1000" height="1000" fill="white"/>
<path d="M0 0H850C932.843 0 1000 67.1573 1000 150V1000H150C67.1573 1000 0 932.843 0 850V0Z" fill="black"/>
<path d="M553.98 209.3V437H820.23V390.5H610.98V346.4H805.23V299.9H610.98V255.8H820.23V209.3H553.98Z" fill="white"/>
<path d="M735.021 619.3C757.671 619.3 782.721 619.75 782.721 648.25C782.721 676.75 757.671 677.2 735.021 677.2H601.221V619.3H735.021ZM793.371 718.75C822.471 707.8 839.721 678.85 839.721 648.25C839.721 622.45 827.271 596.5 803.871 582.85C785.871 572.35 765.471 571.3 744.171 571.3H544.221V799H601.221V725.2H731.271L773.871 799H839.721L793.371 718.75Z" fill="white"/>
<path d="M423.664 799H489.514L358.114 571.3H285.514L154.414 799H219.214L244.114 755.8H398.764L423.664 799ZM271.864 707.8L321.514 621.7L371.014 707.8H271.864Z" fill="white"/>
<path d="M415.121 209.3V297.65H228.671V209.3H171.671V437H228.671V345.65H415.121V437H472.121V209.3H415.121Z" fill="white"/>
</g>
<defs>
<clipPath id="clip0_401_2">
<rect width="1000" height="1000" fill="white"/>
</clipPath>
</defs>
</svg>
